<svg xmlns="http://www.w3.org/2000/svg" version="1.1" xmlns:xlink="http://www.w3.org/1999/xlink" xmlns:svgjs="http://svgjs.com/svgjs" width="1440" height="560" preserveAspectRatio="none" viewBox="0 0 1440 560">
    <g mask="url(&quot;#SvgjsMask1041&quot;)" fill="none">
        <rect width="1440" height="560" x="0" y="0" fill="rgba(6, 3, 46, 1)"></rect>
        <path d="M22.27 140C67.2 64.8 73.29 15 140 3.68C202.16 -6.87 210.57 49.13 280 96.25C311.01 117.29 308.49 121.46 340.87 140C378.49 161.54 385.65 176.4 420 176.4C437.19 176.4 443.95 159.72 443.95 140C443.95 106.52 437.43 102.13 420 70C399.46 32.13 368 21.93 368 0C368 -13.07 394 0 420 0C444.6 0 445.9 -6.42 469.19 0C515.9 12.89 512.5 27.1 560 38.62C627.91 55.1 640.12 69.1 700 56C728.38 49.79 709.05 10.99 736.52 0C779.05 -17.01 788.26 0 840 0C910 0 910 0 980 0C1050 0 1050 0 1120 0C1190 0 1190 0 1260 0C1330 0 1330 0 1400 0C1470 0 1497.71 -27.71 1540 0C1567.71 18.15 1558.16 55.4 1540 91.72C1523.16 125.4 1470 121.16 1470 140C1470 156.24 1526.59 135.07 1540 161.88C1561.59 205.07 1540 220.94 1540 280C1540 338.15 1564.9 396.31 1540 396.31C1503.93 396.31 1468.62 344.48 1418.06 280C1398.62 255.21 1413.06 217.78 1400 217.78C1385.37 217.78 1368.29 245.5 1362.67 280C1351.82 346.61 1354.03 353.38 1367.06 420C1372.7 448.84 1374.18 459.41 1400 470.91C1460.65 497.91 1491.47 466.12 1540 497C1561.47 510.66 1561.72 550.22 1540 560C1491.72 581.72 1470 560 1400 560C1330 560 1330 560 1260 560C1190 560 1190 560 1120 560C1050 560 1050 560 980 560C910 560 910 560 840 560C770 560 770 560 700 560C630 560 630 560 560 560C490 560 490 560 420 560C350 560 350 560 280 560C210 560 210 560 140 560C70 560 48.38 581.62 0 560C-21.62 550.34 -14.08 522.89 0 497.45C24.65 452.89 77.45 462.37 77.45 420C77.45 366.77 32.52 365.04 0 306.25C-6.2 295.04 0 293.13 0 280C0 259 -3.28 258.63 0 238C7.85 188.63 -2.8 181.96 22.27 140" stroke="rgba(232, 248, 2, 1)" stroke-width="2"></path>
        <path d="M980 118.18C951.15 133.79 946.53 124.46 917.78 140C876.53 162.3 874.37 161.94 840 193.85C798.96 231.94 766.96 244.32 766.96 280C766.96 305.85 807.48 292.63 840 316.92C901.19 362.63 897.85 367.77 954.39 420C967.85 432.44 966.95 446.25 980 446.25C993.57 446.25 1004.89 437.79 1007.63 420C1017.7 354.66 978.55 337.31 1005.63 280C1034.74 218.4 1058.11 223.64 1120 182.17C1162.59 153.64 1214.59 171.62 1214.59 140C1214.59 95.85 1174.76 35.71 1120 30.62C1057.47 24.8 1052.26 79.1 980 118.18" stroke="rgba(232, 248, 2, 1)" stroke-width="2"></path>
        <path d="M560 373.33C543.58 373.33 541.94 396.85 541.94 420C541.94 440.93 544.27 461.48 560 461.48C588.3 461.48 630 441.67 630 420C630 397.59 587.61 373.33 560 373.33" stroke="rgba(232, 248, 2, 1)" stroke-width="2"></path>
        <path d="M62.05 140C62.05 93.24 97.44 49.74 140 49.74C190.01 49.74 247.19 92.58 247.19 140C247.19 191.3 189.39 247.19 140 247.19C96.82 247.19 62.05 191.97 62.05 140" stroke="rgba(232, 248, 2, 1)" stroke-width="2"></path>
        <path d="M490 140C519.53 104.66 519.89 80.04 560 78.85C624.89 76.93 629.63 107.43 700 133.78C711.3 138.01 723.33 131.14 723.33 140C723.33 162.25 723.38 179.8 700 196C641.72 236.39 629.71 223.91 560 253.19C529.71 265.91 511.86 253.45 500 280C474.6 336.86 500.14 351.57 485.48 420C470.14 491.57 468.82 498.37 440 560C436.08 568.37 430 560 420 560C350 560 350 560 280 560C210 560 210 560 140 560C75.28 560 10.57 586.81 10.57 560C10.57 522.09 74.01 493.68 140 430.57C147.21 423.68 149.48 426.6 156.97 420C219.48 364.92 215.3 359.09 280 307.22C302.61 289.09 304.88 291.6 331.58 280C374.88 261.19 386.24 276.23 420 246.4C465.45 206.23 449.53 188.43 490 140" stroke="rgba(232, 248, 2, 1)" stroke-width="2"></path>
        <path d="M840 101.11C797.22 84.97 787.25 34.57 787.25 0C787.25 -15.99 813.63 0 840 0C910 0 910 0 980 0C1028.28 0 1076.55 -16.15 1076.55 0C1076.55 20.22 1034.21 49.56 980 72.73C915.94 100.11 893.59 121.33 840 101.11" stroke="rgba(232, 248, 2, 1)" stroke-width="2"></path>
        <path d="M1260 97.67C1215.46 97.67 1172.5 29.29 1172.5 0C1172.5 -19.54 1216.25 0 1260 0C1306.66 0 1353.33 -19.95 1353.33 0C1353.33 28.88 1305.88 97.67 1260 97.67" stroke="rgba(232, 248, 2, 1)" stroke-width="2"></path>
        <path d="M1054.93 280C1067.51 242.87 1083.28 224.34 1120 224.34C1179.98 224.34 1185.2 250.5 1248.33 280C1255.2 283.21 1256.34 283.16 1260 289.77C1295.11 353.16 1289.7 356.74 1325.88 420C1359.7 479.13 1355.46 485.82 1400 534.55C1419.44 555.82 1453.85 553.32 1453.85 560C1453.85 566.04 1426.93 560 1400 560C1330 560 1330 560 1260 560C1190 560 1190 560 1120 560C1050 560 1050 560 980 560C928.15 560 923.4 571.77 876.3 560C853.4 554.27 857.76 525 840 525C823 525 828.57 554.55 806.78 560C758.57 572.05 753.39 560 700 560C638.24 560 576.47 582.14 576.47 560C576.47 531.33 639.22 510.31 700 458.39C721.16 440.31 718 436.44 740.34 420C788 384.93 792.73 355.38 840 355.38C878.42 355.38 876.94 386.56 911.71 420C946.94 453.87 945.19 490 980 490C1016.18 490 1037.92 464.16 1053.68 420C1075.39 359.16 1034.35 340.7 1054.93 280" stroke="rgba(232, 248, 2, 1)" stroke-width="2"></path>
        <path d="M1474.52 280C1474.52 248.41 1520.69 216.56 1540 216.56C1553.43 216.56 1540 248.28 1540 280C1540 311.23 1553.37 342.46 1540 342.46C1520.63 342.46 1474.52 311.36 1474.52 280" stroke="rgba(232, 248, 2, 1)" stroke-width="2"></path>
        <path d="M101.82 140C101.82 117.1 119.15 95.79 140 95.79C164.49 95.79 192.5 116.77 192.5 140C192.5 165.13 164.19 192.5 140 192.5C118.85 192.5 101.82 165.45 101.82 140" stroke="rgba(232, 248, 2, 1)" stroke-width="2"></path>
        <path d="M536.05 140C536.05 127.74 546.31 119.08 560 119.08C583.56 119.08 610.56 126.22 610.56 140C610.56 156.04 581.72 178.72 560 178.72C544.47 178.72 536.05 157.56 536.05 140" stroke="rgba(232, 248, 2, 1)" stroke-width="2"></path>
        <path d="M840 3.89C837.87 3.48 837.97 1.33 837.97 0C837.97 -0.62 838.99 0 840 0C910 0 910 0 980 0C998.11 0 1016.21 -6.05 1016.21 0C1016.21 7.58 1001.33 26.8 980 27.27C913.22 28.74 908.89 17.12 840 3.89" stroke="rgba(232, 248, 2, 1)" stroke-width="2"></path>
        <path d="M1260 16.28C1252.58 16.28 1245.42 4.88 1245.42 0C1245.42 -3.26 1252.71 0 1260 0C1267.78 0 1275.56 -3.33 1275.56 0C1275.56 4.81 1267.65 16.28 1260 16.28" stroke="rgba(232, 248, 2, 1)" stroke-width="2"></path>
        <path d="M1104.23 280C1105.54 270.1 1111.1 266.51 1120 266.51C1134.54 266.51 1137.62 269.91 1151.11 280C1207.62 322.24 1211.78 320.63 1260 371.16C1278.58 390.63 1277.94 393.74 1284.71 420C1302.29 488.16 1317.9 507.87 1308.7 560C1305.55 577.87 1284.35 560 1260 560C1190 560 1190 560 1120 560C1050 560 1050 560 980 560C960.56 560 941.11 565.95 941.11 560C941.11 552.82 962.45 549.24 980 533.75C1041.77 479.24 1066.13 488.65 1099.74 420C1128.25 361.78 1095.41 346.84 1104.23 280" stroke="rgba(232, 248, 2, 1)" stroke-width="2"></path>
        <path d="M1530.97 280C1530.97 275.64 1537.34 271.25 1540 271.25C1541.85 271.25 1540 275.63 1540 280C1540 284.31 1541.84 288.62 1540 288.62C1537.33 288.62 1530.97 284.33 1530.97 280" stroke="rgba(232, 248, 2, 1)" stroke-width="2"></path>
        <path d="M263.03 420C272.63 413.68 268.99 406.75 280 404.44C347.47 390.28 360.01 380.8 420 387.06C434.52 388.58 429.03 403.88 429.03 420C429.03 430.35 425.71 430.64 420 440C383.01 500.64 392 518.55 343.64 560C322 578.55 311.82 560 280 560C210 560 210 560 140 560C108.3 560 76.6 573.13 76.6 560C76.6 541.43 104.37 523.35 140 496.6C197.59 453.35 202.63 459.76 263.03 420" stroke="rgba(232, 248, 2, 1)" stroke-width="2"></path>
        <path d="M799.66 420C799.66 404.53 820.87 393.85 840 393.85C855.55 393.85 869.02 405.19 869.02 420C869.02 439.51 856.22 462.5 840 462.5C821.54 462.5 799.66 438.86 799.66 420" stroke="rgba(232, 248, 2, 1)" stroke-width="2"></path>
        <path d="M645.1 560C645.1 547.26 673.37 514.84 700 514.84C724.55 514.84 747.46 546.91 747.46 560C747.46 569.49 723.73 560 700 560C672.55 560 645.1 569.84 645.1 560" stroke="rgba(232, 248, 2, 1)" stroke-width="2"></path>
    </g>
    <defs>
        <mask id="SvgjsMask1041">
            <rect width="1440" height="560" fill="#ffffff"></rect>
        </mask>
    </defs>
</svg>