<?xml version="1.0" encoding="utf-8"?>
<svg xmlns="http://www.w3.org/2000/svg" style="margin: auto; background: none; display: block; shape-rendering: auto;" width="284" height="128" preserveAspectRatio="xMidYMid">
<style type="text/css">
  text {
    text-anchor: middle; font-size: 97px; opacity: 0;
  }
</style>
<g style="transform-origin: 142px 64px; transform: scale(1.2125);">
<g transform="translate(142,64)">
  <g transform="translate(0,0)"><g class="path" style="transform: matrix(0.01, 0, 0, 0.01, 0, 0); transform-origin: -84.5599px -3.0096px; animation: 1s linear 0s 1 normal forwards running bounce-in-4c60dcdb-6771-4d66-8aca-f349de10108d;"><path d="M36.96-18.32L36.96-18.32L36.96-18.32Q38.48-18.32 38.48-14.48L38.48-14.48L38.48-14.48Q38.48-10.64 37.04-7.60L37.04-7.60L37.04-7.60Q35.60-4.56 33.56-2.88L33.56-2.88L33.56-2.88Q31.52-1.20 28.96-0.16L28.96-0.16L28.96-0.16Q20.40 3.60 12.96-0.32L12.96-0.32L12.96-0.32Q9.20-2.32 7.20-5.08L7.20-5.08L7.20-5.08Q5.20-7.84 4-11.68L4-11.68L4-11.68Q2.16-17.44 2.16-23.76L2.16-23.76L2.16-23.76Q2.16-30.08 3.36-35.60L3.36-35.60L3.36-35.60Q4.56-41.12 7.04-46.12L7.04-46.12L7.04-46.12Q9.52-51.12 14.08-54.16L14.08-54.16L14.08-54.16Q18.64-57.20 24.64-57.20L24.64-57.20L24.64-57.20Q27.20-57.20 29.96-56.36L29.96-56.36L29.96-56.36Q32.72-55.52 34.48-54.28L34.48-54.28L34.48-54.28Q36.24-53.04 37.60-50.48L37.60-50.48L37.60-50.48Q38.96-47.92 38.96-44.48L38.96-44.48L38.96-44.48Q38.96-40.80 37.20-37.84L37.20-37.84L37.20-37.84Q36.40-36.48 34.64-35.40L34.64-35.40L34.64-35.40Q32.88-34.32 30.48-34.32L30.48-34.32L30.48-34.32Q26.80-34.32 25.28-37.60L25.28-37.60L25.28-37.60Q24.64-38.88 24.64-40.40L24.64-40.40L24.64-40.40Q24.64-41.92 25.68-42.16L25.68-42.16L25.68-42.16Q26.80-42.48 27.76-43.92L27.76-43.92L27.76-43.92Q28.72-45.36 28.72-47.28L28.72-47.28L28.72-47.28Q28.72-48.80 27.92-49.92L27.92-49.92L27.92-49.92Q26.40-51.92 23.52-51.92L23.52-51.92L23.52-51.92Q20.64-51.92 18.28-49.28L18.28-49.28L18.28-49.28Q15.92-46.64 14.72-42.64L14.72-42.64L14.72-42.64Q12.32-34.64 12.32-27.92L12.32-27.92L12.32-27.92Q12.32-21.20 14.16-17.12L14.16-17.12L14.16-17.12Q16.40-12.08 19.84-10.40L19.84-10.40L19.84-10.40Q22-9.36 24.80-9.36L24.80-9.36L24.80-9.36Q29.52-9.36 33.28-13.60L33.28-13.60L33.28-13.60Q34.88-15.28 35.92-17.60L35.92-17.60L35.92-17.60Q36.32-18.32 36.96-18.32" fill="#51cacc" stroke="none" stroke-width="none" transform="translate(-105.11994171142578,24.749986659458713)" style="fill: rgb(81, 202, 204);"></path></g><g class="path" style="transform: matrix(0.01, 0, 0, 0.01, 0, 0); transform-origin: -49.8399px 7.18999px; animation: 1s linear 0.0942857s 1 normal forwards running bounce-in-4c60dcdb-6771-4d66-8aca-f349de10108d;"><path d="M67.68-27.52L67.28-21.44L67.60-18.64L67.60-18.64Q67.60-17.12 64.72-17.12L64.72-17.12L64.72-17.12Q58.88-17.12 58.88-21.52L58.88-21.52L58.88-21.52Q58.88-22.56 59.44-24.40L59.44-24.40L59.44-24.40Q60-26.24 60-27.60L60-27.60L60-27.60Q60-28.96 59.20-29.96L59.20-29.96L59.20-29.96Q58.40-30.96 56.88-30.96L56.88-30.96L56.88-30.96Q55.36-30.96 54.28-29.88L54.28-29.88L54.28-29.88Q53.20-28.80 52.96-27.68L52.96-27.68L52.64-26.56L52.64-26.56Q52.16-24.08 52.16-18.28L52.16-18.28L52.16-18.28Q52.16-12.48 52.32-9.16L52.32-9.16L52.32-9.16Q52.48-5.84 52.64-4.60L52.64-4.60L52.64-4.60Q52.80-3.36 52.80-3.12L52.80-3.12L52.80-3.12Q52.80-1.12 50.32 0.12L50.32 0.12L50.32 0.12Q47.84 1.36 45.36 1.36L45.36 1.36L45.36 1.36Q42.88 1.36 42.88 0.32L42.88 0.32L43.28-2.16L43.28-2.16Q44.40-9.12 44.40-20.32L44.40-20.32L44.40-20.32Q44.40-31.52 43.60-35.52L43.60-35.52L43.60-35.52Q43.60-36.48 45.28-36.48L45.28-36.48L45.28-36.48Q49.60-36.48 51.04-33.52L51.04-33.52L51.04-33.52Q51.12-33.20 51.32-33.20L51.32-33.20L51.32-33.20Q51.52-33.20 52.40-33.92L52.40-33.92L52.40-33.92Q55.04-36.08 58.64-36.08L58.64-36.08L58.64-36.08Q60.88-36.08 63.12-35.20L63.12-35.20L63.12-35.20Q67.68-33.36 67.68-27.52L67.68-27.52" fill="#51cacc" stroke="none" stroke-width="none" transform="translate(-105.11994171142578,24.749986659458713)" style="fill: rgb(81, 202, 204);"></path></g><g class="path" style="transform: matrix(0.01, 0, 0, 0.01, 0, 0); transform-origin: -20.9199px 17.95px; animation: 1s linear 0.188571s 1 normal forwards running bounce-in-4c60dcdb-6771-4d66-8aca-f349de10108d;"><path d="M85.44 22.16L85.44 22.16L85.44 22.16Q85.44 23.12 84.48 23.12L84.48 23.12L84.40 23.12L84.40 23.12Q81.76 23.12 78.44 21.28L78.44 21.28L78.44 21.28Q75.12 19.44 75.12 17.04L75.12 17.04L75.12 17.04Q75.12 14.64 78.16 8.68L78.16 8.68L78.16 8.68Q81.20 2.72 81.20 0.72L81.20 0.72L81.20 0.72Q81.20-1.44 79.12-7.04L79.12-7.04L79.12-7.04Q76.48-14.32 74.92-18.88L74.92-18.88L74.92-18.88Q73.36-23.44 71.56-26.92L71.56-26.92L71.56-26.92Q69.76-30.40 68.96-31.04L68.96-31.04L68.16-31.60L68.16-31.60Q67.28-32.08 67.28-32.64L67.28-32.64L67.28-32.64Q67.28-33.76 70.76-34.92L70.76-34.92L70.76-34.92Q74.24-36.08 76.88-36.08L76.88-36.08L76.88-36.08Q78.08-36.08 78.88-34.16L78.88-34.16L78.88-34.16Q80.32-30.40 82.00-23.76L82.00-23.76L82.00-23.76Q86.08-10.16 87.12-10.16L87.12-10.16L87.12-10.16Q87.84-10.16 90.04-15.76L90.04-15.76L90.04-15.76Q92.24-21.36 92.24-24.80L92.24-24.80L92.24-24.80Q92.24-30.80 88.72-31.84L88.72-31.84L88.72-31.84Q87.92-32 87.92-32.64L87.92-32.64L87.92-32.64Q87.92-34.08 91.68-35.40L91.68-35.40L91.68-35.40Q95.44-36.72 98.48-36.72L98.48-36.72L98.48-36.72Q101.12-36.72 101.12-33.28L101.12-33.28L101.12-33.28Q101.12-30.64 100.00-27.12L100.00-27.12L100.00-27.12Q98.88-23.60 97.92-21.56L97.92-21.56L97.92-21.56Q96.96-19.52 93.16-12.12L93.16-12.12L93.16-12.12Q89.36-4.72 86.88 0.88L86.88 0.88L86.88 0.88Q84.16 7.60 84.16 14.56L84.16 14.56L84.16 14.56Q84.16 18.24 84.80 20.08L84.80 20.08L84.80 20.08Q85.44 21.92 85.44 22.16" fill="#51cacc" stroke="none" stroke-width="none" transform="translate(-105.11994171142578,24.749986659458713)" style="fill: rgb(81, 202, 204);"></path></g><g class="path" style="transform: matrix(0.01, 0, 0, 0.01, 0, 0); transform-origin: 11.0401px 18.75px; animation: 1s linear 0.282857s 1 normal forwards running bounce-in-4c60dcdb-6771-4d66-8aca-f349de10108d;"><path d="M103.20-12.24L103.20-12.24L103.20-12.24Q103.36-20.32 103.36-25.52L103.36-25.52L103.36-25.52Q103.36-30.72 102.64-35.44L102.64-35.44L102.64-35.44Q102.64-36.24 104.24-36.24L104.24-36.24L104.24-36.24Q105.84-36.24 107.00-35.84L107.00-35.84L107.00-35.84Q108.16-35.44 108.64-34.96L108.64-34.96L108.64-34.96Q109.92-33.68 110.12-33.68L110.12-33.68L110.12-33.68Q110.32-33.68 111.36-34.40L111.36-34.40L111.36-34.40Q114.48-36.40 118.28-36.40L118.28-36.40L118.28-36.40Q122.08-36.40 124.92-34.48L124.92-34.48L124.92-34.48Q127.76-32.56 128.96-29.44L128.96-29.44L128.96-29.44Q131.12-24.08 131.12-18.08L131.12-18.08L131.12-18.08Q131.12-12.16 128.96-6.24L128.96-6.24L128.96-6.24Q127.76-3.04 125.44-1L125.44-1L125.44-1Q123.12 1.04 120.00 1.04L120.00 1.04L120.00 1.04Q113.84 1.04 113.84-6.08L113.84-6.08L113.84-6.08Q113.84-8 114.64-8L114.64-8L114.64-8Q114.80-8 115.56-7.64L115.56-7.64L115.56-7.64Q116.32-7.28 117.04-7.28L117.04-7.28L117.04-7.28Q122.72-7.28 122.72-19.32L122.72-19.32L122.72-19.32Q122.72-31.36 116.64-31.36L116.64-31.36L116.64-31.36Q114.96-31.36 113.80-30.60L113.80-30.60L113.80-30.60Q112.64-29.84 112.32-29.12L112.32-29.12L112.00-28.32L112.00-28.32Q110.88-21.12 110.88-0.56L110.88-0.56L110.88-0.56Q110.88 8.72 111.24 12.76L111.24 12.76L111.24 12.76Q111.60 16.80 111.60 17.60L111.60 17.60L111.60 17.60Q111.60 18.40 111.12 19.04L111.12 19.04L111.12 19.04Q109.52 21.12 106.80 22.76L106.80 22.76L106.80 22.76Q104.08 24.40 102.00 24.40L102.00 24.40L102.00 24.40Q101.20 24.40 101.20 23.36L101.20 23.36L101.20 23.36Q102.48 15.28 103.20-12.24" fill="#51cacc" stroke="none" stroke-width="none" transform="translate(-105.11994171142578,24.749986659458713)" style="fill: rgb(81, 202, 204);"></path></g><g class="path" style="transform: matrix(0.01, 0, 0, 0.01, 0, 0); transform-origin: 36.8801px 2.38999px; animation: 1s linear 0.377143s 1 normal forwards running bounce-in-4c60dcdb-6771-4d66-8aca-f349de10108d;"><path d="M133.04-31.20L133.04-31.20L133.28-34.40L133.28-34.40Q133.36-35.12 134.40-35.12L134.40-35.12L137.20-35.12L136.88-41.52L136.88-41.84L136.88-41.84Q136.88-43.68 139.68-45.36L139.68-45.36L139.68-45.36Q142.48-47.04 144.80-47.04L144.80-47.04L144.80-47.04Q145.52-47.04 145.52-46.40L145.52-46.40L145.52-46.32L145.52-46.32Q145.20-44.16 144.88-35.20L144.88-35.20L144.88-35.20Q148.40-35.20 149.36-35.36L149.36-35.36L149.36-35.36Q150.32-35.52 150.40-35.52L150.40-35.52L150.40-35.52Q150.96-35.52 150.96-34.56L150.96-34.56L150.96-34.56Q150.96-33.60 150.08-32.12L150.08-32.12L150.08-32.12Q149.20-30.64 148.16-30.56L148.16-30.56L144.80-30.56L144.80-30.56Q144.72-27.84 144.72-21.40L144.72-21.40L144.72-21.40Q144.72-14.96 144.84-10.80L144.84-10.80L144.84-10.80Q144.96-6.64 145.12-4.52L145.12-4.52L145.12-4.52Q145.28-2.40 145.48-1.12L145.48-1.12L145.48-1.12Q145.68 0.16 145.80 0.72L145.80 0.72L145.80 0.72Q145.92 1.28 145.92 1.44L145.92 1.44L145.92 1.44Q145.92 2.24 144.88 2.32L144.88 2.32L144.88 2.32Q141.76 2.32 138.68 1.44L138.68 1.44L138.68 1.44Q135.60 0.56 135.60-1.60L135.60-1.60L135.60-1.60Q137.28-15.04 137.28-30.48L137.28-30.48L137.28-30.48Q135.12-30.48 134-30.32L134-30.32L133.92-30.32L133.92-30.32Q133.20-30.32 133.04-31.20" fill="#51cacc" stroke="none" stroke-width="none" transform="translate(-105.11994171142578,24.749986659458713)" style="fill: rgb(81, 202, 204);"></path></g><g class="path" style="transform: matrix(0.01, 0, 0, 0.01, 0, 0); transform-origin: 58.7601px 7.34999px; animation: 1s linear 0.471429s 1 normal forwards running bounce-in-4c60dcdb-6771-4d66-8aca-f349de10108d;"><path d="M158.96-20.32L158.96-20.32L159.04-18.32L159.04-18.32Q159.04-17.84 159.68-17.84L159.68-17.84L159.68-17.84Q162.24-18.08 164.16-19.16L164.16-19.16L164.16-19.16Q166.08-20.24 167.04-21.60L167.04-21.60L167.04-21.60Q168.96-24.56 169.12-26.72L169.12-26.72L169.20-27.68L169.20-27.68Q169.20-32 165.76-32L165.76-32L165.76-32Q163.20-32 161.60-29.76L161.60-29.76L161.60-29.76Q158.96-26.24 158.96-20.32zM176.40-9.68L176.40-9.68L176.40-9.68Q176.40-6.64 175.16-4.36L175.16-4.36L175.16-4.36Q173.92-2.08 172.36-1L172.36-1L172.36-1Q170.80 0.08 168.72 0.72L168.72 0.72L168.72 0.72Q166.08 1.52 163.68 1.52L163.68 1.52L163.68 1.52Q156.96 1.52 153.76-3.52L153.76-3.52L153.76-3.52Q150.56-8.56 150.56-16.36L150.56-16.36L150.56-16.36Q150.56-24.16 154.52-30.24L154.52-30.24L154.52-30.24Q158.48-36.32 166.40-36.32L166.40-36.32L166.40-36.32Q173.60-36.32 176.16-31.28L176.16-31.28L176.16-31.28Q177.20-29.36 177.20-27.64L177.20-27.64L177.20-27.64Q177.20-25.92 177.04-24.92L177.04-24.92L177.04-24.92Q176.88-23.92 175.92-21.92L175.92-21.92L175.92-21.92Q174.96-19.92 173.36-18.32L173.36-18.32L173.36-18.32Q171.76-16.72 168.32-15.28L168.32-15.28L168.32-15.28Q164.88-13.84 160.24-13.36L160.24-13.36L160.24-13.36Q159.60-13.36 159.60-12.80L159.60-12.80L159.60-12.80Q159.60-12.08 160.12-10.68L160.12-10.68L160.12-10.68Q160.64-9.28 161.28-8.32L161.28-8.32L161.28-8.32Q163.04-6.08 166.48-6.08L166.48-6.08L166.48-6.08Q169.92-6.08 172.32-8.32L172.32-8.32L172.32-8.32Q173.60-9.52 174.40-11.28L174.40-11.28L174.40-11.28Q174.72-11.92 175.24-11.92L175.24-11.92L175.24-11.92Q175.76-11.92 176.08-11.04L176.08-11.04L176.08-11.04Q176.40-10.16 176.40-9.68" fill="#51cacc" stroke="none" stroke-width="none" transform="translate(-105.11994171142578,24.749986659458713)" style="fill: rgb(81, 202, 204);"></path></g><g class="path" style="transform: matrix(0.01, 0, 0, 0.01, 0, 0); transform-origin: 90.2801px 6.9085px; animation: 1s linear 0.565714s 1 normal forwards running bounce-in-4c60dcdb-6771-4d66-8aca-f349de10108d;"><path d="M180.00-7.84L180.00-7.84L181.60-7.60L181.60-7.60Q186.32-7.60 191.04-15.68L191.04-15.68L191.04-15.68Q191.28-16.08 191.68-16.64L191.68-16.64L191.68-16.64Q188.16-23.12 185.56-26.96L185.56-26.96L185.56-26.96Q182.96-30.80 182.08-31.36L182.08-31.36L181.28-32L181.28-32Q180.16-32.48 180.16-33.20L180.16-33.20L180.16-33.20Q180.16-34.24 183.08-35.44L183.08-35.44L183.08-35.44Q186.00-36.64 188.56-36.80L188.56-36.80L188.56-36.80Q189.92-36.88 191.12-34.80L191.12-34.80L191.12-34.80Q193.36-31.52 196.56-24.80L196.56-24.80L196.56-24.64L196.56-24.64Q200.32-31.04 201.36-33.68L201.36-33.68L201.36-33.68Q201.36-34.88 203.36-35.52L203.36-35.52L203.36-35.52Q205.36-36.16 208.32-36.16L208.32-36.16L208.32-36.16Q211.28-36.16 211.28-35.20L211.28-35.20L211.28-35.20Q211.28-34.80 210.56-34.32L210.56-34.32L210.56-34.32Q210.08-34.08 209.16-33.36L209.16-33.36L209.16-33.36Q208.24-32.64 205.28-29.16L205.28-29.16L205.28-29.16Q202.32-25.68 199.28-20.64L199.28-20.64L199.28-20.64Q199.12-20.40 199.04-20.16L199.04-20.16L199.04-20.16Q203.68-11.76 204.56-10.52L204.56-10.52L204.56-10.52Q205.44-9.28 205.96-8.48L205.96-8.48L205.96-8.48Q206.48-7.68 208.04-6.16L208.04-6.16L208.04-6.16Q209.60-4.64 211.00-4.24L211.00-4.24L211.00-4.24Q212.40-3.84 212.40-3.12L212.40-3.12L212.40-3.12Q212.40-2 209.52-0.44L209.52-0.44L209.52-0.44Q206.64 1.12 204.16 1.12L204.16 1.12L204.16 1.12Q202.40 1.12 201.44-0.08L201.44-0.08L201.44-0.08Q199.76-2.08 194.08-12L194.08-12L194.08-12Q189.12-3.76 188.16-2.44L188.16-2.44L188.16-2.44Q187.20-1.12 185.76-0.08L185.76-0.08L185.76-0.08Q184.32 0.96 182.60 0.96L182.60 0.96L182.60 0.96Q180.88 0.96 179.80-0.16L179.80-0.16L179.80-0.16Q178.72-1.28 178.56-2.40L178.56-2.40L178.40-3.52L178.40-3.52Q178.40-7.84 180.00-7.84" fill="#51cacc" stroke="none" stroke-width="none" transform="translate(-105.11994171142578,24.749986659458713)" style="fill: rgb(81, 202, 204);"></path></g></g>
</g>
</g>
<style id="bounce-in-4c60dcdb-6771-4d66-8aca-f349de10108d" data-anikit="">@keyframes bounce-in-4c60dcdb-6771-4d66-8aca-f349de10108d
{
  0% {
    animation-timing-function: cubic-bezier(0.0383,0.3388,0.0421,0.6652);
    transform: matrix(0.01,0,0,0.01,0,0);
    opacity: 1;
  }
  4.7% {
    animation-timing-function: cubic-bezier(0.3296,0.3336,0.5772,0.6672);
    transform: matrix(0.556,0,0,0.556,0,0);
    opacity: 1;
  }
  8.4% {
    animation-timing-function: cubic-bezier(0.0781,0.1617,0.0874,0.9301);
    transform: matrix(0.979,0,0,0.979,0,0);
    opacity: 1;
  }
  12.4% {
    animation-timing-function: cubic-bezier(0.8341,0.1496,0.8634,0.7673);
    transform: matrix(1.153,0,0,1.153,0,0);
    opacity: 1;
  }
  16.3% {
    animation-timing-function: cubic-bezier(0.3264,0.3332,0.5758,0.6695);
    transform: matrix(1.008,0,0,1.008,0,0);
    opacity: 1;
  }
  21.2% {
    animation-timing-function: cubic-bezier(0.0921,0.1883,0.3277,1);
    transform: matrix(0.704,0,0,0.704,0,0);
    opacity: 1;
  }
  24.5% {
    animation-timing-function: cubic-bezier(0.6905,0.0944,0.8759,0.7624);
    transform: matrix(0.626,0,0,0.626,0,0);
    opacity: 1;
  }
  27.7% {
    animation-timing-function: cubic-bezier(0.3688,0.332,0.624,0.6684);
    transform: matrix(0.704,0,0,0.704,0,0);
    opacity: 1;
  }
  32.6% {
    animation-timing-function: cubic-bezier(0.1368,0.2364,0.2451,0.9049);
    transform: matrix(0.958,0,0,0.958,0,0);
    opacity: 1;
  }
  37.4% {
    animation-timing-function: cubic-bezier(0.5936,0.0846,0.3495,1);
    transform: matrix(1.085,0,0,1.085,0,0);
    opacity: 1;
  }
  49.5% {
    animation-timing-function: cubic-bezier(0.5522,0.0981,0.3807,1);
    transform: matrix(0.802,0,0,0.802,0,0);
    opacity: 1;
  }
  62.4% {
    animation-timing-function: cubic-bezier(0.4497,0.1349,0.4911,1);
    transform: matrix(1.044,0,0,1.044,0,0);
    opacity: 1;
  }
  74.1% {
    animation-timing-function: cubic-bezier(0.429,0,0.5239,1);
    transform: matrix(0.914,0,0,0.914,0,0);
    opacity: 1;
  }
  87% {
    animation-timing-function: cubic-bezier(0.3501,0,0.6422,1);
    transform: matrix(1.013,0,0,1.013,0,0);
    opacity: 1;
  }
  95.8% {
    animation-timing-function: cubic-bezier(0.3653,0,0.6776,1);
    transform: matrix(0.992,0,0,0.992,0,0);
    opacity: 1;
  }
  100% {
    transform: matrix(1,0,0,1,0,0);
    opacity: 1;
  }
}</style></svg>