<?xml version="1.0" encoding="utf-8"?>
<svg xmlns="http://www.w3.org/2000/svg" style="margin: auto; background: none; display: block; shape-rendering: auto;" width="289" height="115" preserveAspectRatio="xMidYMid">
<style type="text/css">
  text {
    text-anchor: middle; font-size: 88px; opacity: 0;
  }
</style>
<g style="transform-origin: 144.5px 57.5px; transform: scale(1.49153);">
<g transform="translate(144.5,57.5)">
  <g transform="translate(0,0)"><g class="path" style="transform: scale(0.91); transform-origin: -74.635px -3.14861px; animation: 0.862069s linear -0.487685s infinite normal forwards running breath-3032e0ac-a58c-4ee6-bcdf-e7926cf247dc;"><path d="M17.29 0.65L17.29 0.65L17.29 0.65Q10.74 0.65 6.25-4.84L6.25-4.84L6.25-4.84Q1.77-10.33 1.77-18.29L1.77-18.29L1.77-18.29Q1.77-28.03 7.17-34.69L7.17-34.69L7.17-34.69Q12.57-41.36 20.41-41.36L20.41-41.36L20.41-41.36Q23.48-41.36 26.11-40.74L26.11-40.74L26.11-40.74Q28.73-40.12 29.85-39.47L29.85-39.47L30.92-38.82L26.90-30.62L26.90-30.62Q25.55-31.80 23.07-32.83L23.07-32.83L23.07-32.83Q20.59-33.87 18.59-33.87L18.59-33.87L18.59-33.87Q14.51-33.87 12.07-30.50L12.07-30.50L12.07-30.50Q9.62-27.14 9.62-20.92L9.62-20.92L9.62-20.92Q9.62-14.69 12.15-10.71L12.15-10.71L12.15-10.71Q14.69-6.73 19.06-6.73L19.06-6.73L19.06-6.73Q21.89-6.73 24.19-8.50L24.19-8.50L24.19-8.50Q26.49-10.27 27.44-13.22L27.44-13.22L32.33-10.38L32.33-10.38Q30.39-5.19 26.37-2.27L26.37-2.27L26.37-2.27Q22.36 0.65 17.29 0.65" fill="#51cacc" stroke="none" stroke-width="none" transform="translate(-91.68501281738281,17.20639446258545)" style="fill: rgb(81, 202, 204);"></path></g><g class="path" style="transform: scale(0.91); transform-origin: -47.435px 2.19139px; animation: 0.862069s linear -0.406404s infinite normal forwards running breath-3032e0ac-a58c-4ee6-bcdf-e7926cf247dc;"><path d="M35.28-28.50L35.28-28.50L42.42-30.03L42.42-30.03Q42.95-25.49 43.13-21.42L43.13-21.42L43.13-21.42Q48.50-29.74 53.22-29.74L53.22-29.74L52.57-20.53L52.57-20.53Q49.15-20.53 47.17-19.91L47.17-19.91L47.17-19.91Q45.19-19.29 43.13-17.46L43.13-17.46L43.13-15.34L43.78-1.48L35.87 0L36.58-14.34L36.58-14.34Q36.34-22.24 35.28-28.50" fill="#51cacc" stroke="none" stroke-width="none" transform="translate(-91.68501281738281,17.20639446258545)" style="fill: rgb(81, 202, 204);"></path></g><g class="path" style="transform: scale(0.91); transform-origin: -24.545px 8.68139px; animation: 0.862069s linear -0.325123s infinite normal forwards running breath-3032e0ac-a58c-4ee6-bcdf-e7926cf247dc;"><path d="M65.37 12.98L57.76 11.39L63.84-2.24L59.47-14.16L53.51-28.50L61.36-29.97L65.14-17.41L67.08-11.45L67.85-11.45L69.27-15.75L73.51-30.03L80.77-29.15L70.33-1.71L65.37 12.98" fill="#51cacc" stroke="none" stroke-width="none" transform="translate(-91.68501281738281,17.20639446258545)" style="fill: rgb(81, 202, 204);"></path></g><g class="path" style="transform: scale(0.91); transform-origin: 4.77999px 8.47639px; animation: 0.862069s linear -0.243842s infinite normal forwards running breath-3032e0ac-a58c-4ee6-bcdf-e7926cf247dc;"><path d="M100.12-29.80L100.12-29.80L100.12-29.80Q103.90-29.80 106.47-26.49L106.47-26.49L106.47-26.49Q109.03-23.19 109.03-17.58L109.03-17.58L109.03-17.58Q109.03-9.74 104.99-4.87L104.99-4.87L104.99-4.87Q100.95 0 94.93 0L94.93 0L94.93 0Q93.69 0 92.16-0.18L92.16-0.18L92.45 11.09L84.37 12.57L85.14-14.34L85.20-14.34L85.20-14.34Q84.96-22.24 83.90-28.50L83.90-28.50L91.04-30.03L91.04-30.03Q91.39-26.90 91.63-23.84L91.63-23.84L91.63-23.84Q91.75-24.13 92.84-25.46L92.84-25.46L92.84-25.46Q93.93-26.79 96.05-28.29L96.05-28.29L96.05-28.29Q98.18-29.80 100.12-29.80zM97.82-22.13L97.82-22.13L97.82-22.13Q94.70-22.13 91.75-20.41L91.75-20.41L91.75-15.34L91.98-6.90L91.98-6.90Q95.17-6.37 96.82-6.37L96.82-6.37L96.82-6.37Q102.48-6.37 102.48-14.25L102.48-14.25L102.48-14.25Q102.48-22.13 97.82-22.13" fill="#51cacc" stroke="none" stroke-width="none" transform="translate(-91.68501281738281,17.20639446258545)" style="fill: rgb(81, 202, 204);"></path></g><g class="path" style="transform: scale(0.91); transform-origin: 29.68px -1.05361px; animation: 0.862069s linear -0.162562s infinite normal forwards running breath-3032e0ac-a58c-4ee6-bcdf-e7926cf247dc;"><path d="M112.81-28.56L116.23-28.56L116.23-34.99L124.20-36.52L123.43-28.56L130.57-28.56L129.92-23.72L123.19-23.72L122.90-11.39L122.90-11.39Q122.90-8.61 123.43-7.70L123.43-7.70L123.43-7.70Q123.96-6.79 125.38-6.79L125.38-6.79L125.38-6.79Q126.79-6.79 129.15-7.43L129.15-7.43L129.50-3.25L129.50-3.25Q125.61 0 122.66 0L122.66 0L122.66 0Q119.71 0 117.82-2.15L117.82-2.15L117.82-2.15Q115.94-4.31 115.94-7.79L115.94-7.79L116.29-14.40L116.23-23.72L112.16-23.72L112.81-28.56" fill="#51cacc" stroke="none" stroke-width="none" transform="translate(-91.68501281738281,17.20639446258545)" style="fill: rgb(81, 202, 204);"></path></g><g class="path" style="transform: scale(0.91); transform-origin: 52.84px 2.33639px; animation: 0.862069s linear -0.0812808s infinite normal forwards running breath-3032e0ac-a58c-4ee6-bcdf-e7926cf247dc;"><path d="M145.49-6.02L145.49-6.02L145.49-6.02Q147.21-6.02 149.09-6.90L149.09-6.90L149.09-6.90Q150.98-7.79 152.04-8.67L152.04-8.67L153.10-9.56L155.82-6.25L155.82-6.25Q155.23-5.25 153.99-3.95L153.99-3.95L153.99-3.95Q152.75-2.66 151.48-1.74L151.48-1.74L151.48-1.74Q150.21-0.83 148.12-0.09L148.12-0.09L148.12-0.09Q146.03 0.65 143.78 0.65L143.78 0.65L143.78 0.65Q139.00 0.65 136.00-2.98L136.00-2.98L136.00-2.98Q132.99-6.61 132.99-12.33L132.99-12.33L132.99-12.33Q132.99-19.53 137.18-24.96L137.18-24.96L137.18-24.96Q141.36-30.39 146.97-30.39L146.97-30.39L146.97-30.39Q151.28-30.39 153.67-27.97L153.67-27.97L153.67-27.97Q156.06-25.55 156.06-21.18L156.06-21.18L156.06-21.18Q156.06-18.59 155.17-15.28L155.17-15.28L153.99-14.04L139.24-12.69L139.24-12.69Q140.24-6.02 145.49-6.02zM145.49-24.31L145.49-24.31L145.49-24.31Q142.90-24.31 141.13-22.21L141.13-22.21L141.13-22.21Q139.36-20.12 139.06-16.87L139.06-16.87L149.09-18.11L149.09-18.11Q149.27-19.47 149.27-20.36L149.27-20.36L149.27-20.36Q149.27-24.31 145.49-24.31" fill="#51cacc" stroke="none" stroke-width="none" transform="translate(-91.68501281738281,17.20639446258545)" style="fill: rgb(81, 202, 204);"></path></g><g class="path" style="transform: scale(0.91); transform-origin: 80.12px 2.45639px; animation: 0.862069s linear 0s infinite normal forwards running breath-3032e0ac-a58c-4ee6-bcdf-e7926cf247dc;"><path d="M185.14-3.89L178.59 0.59L171.57-9.85L164.31 0.59L158.47-2.66L167.74-14.63L158.95-25.49L165.50-29.97L171.93-20.00L178.89-30.09L184.61-26.55L175.82-15.10L185.14-3.89" fill="#51cacc" stroke="none" stroke-width="none" transform="translate(-91.68501281738281,17.20639446258545)" style="fill: rgb(81, 202, 204);"></path></g></g>
</g>
</g>
<style id="breath-3032e0ac-a58c-4ee6-bcdf-e7926cf247dc" data-anikit="">@keyframes breath-3032e0ac-a58c-4ee6-bcdf-e7926cf247dc
{
  0% {
    animation-timing-function: cubic-bezier(0.9647,0.2413,-0.0705,0.7911);
    transform: scale(0.9099999999999999);
  }
  51% {
    animation-timing-function: cubic-bezier(0.9226,0.2631,-0.0308,0.7628);
    transform: scale(1.02994);
  }
  100% {
    transform: scale(0.9099999999999999);
  }
}</style></svg>