<?xml version="1.0" standalone="no"?>
<!DOCTYPE svg PUBLIC "-//W3C//DTD SVG 20010904//EN"
 "http://www.w3.org/TR/2001/REC-SVG-20010904/DTD/svg10.dtd">
<svg version="1.0" xmlns="http://www.w3.org/2000/svg"
 width="382.000000pt" height="382.000000pt" viewBox="0 0 382.000000 382.000000"
 preserveAspectRatio="xMidYMid meet">

<g transform="translate(0.000000,382.000000) scale(0.100000,-0.100000)"
fill="#000000" stroke="none">
<path d="M1870 3722 c0 -4 15 -9 32 -10 18 -2 37 -7 42 -12 5 -5 -6 -43 -28
-94 -20 -46 -36 -89 -36 -95 0 -6 -9 -25 -20 -43 -30 -50 -26 -56 38 -60 69
-5 105 5 43 12 -32 4 -48 12 -60 30 -9 14 -11 21 -3 16 6 -4 12 -4 13 1 3 34
30 96 83 191 30 52 32 62 18 63 -9 1 -41 3 -69 5 -29 2 -53 0 -53 -4z"/>
<path d="M1617 3703 c-21 -2 -35 -9 -31 -14 3 -5 20 -7 39 -3 19 3 35 1 39 -5
4 -5 -5 -67 -19 -137 -30 -152 -30 -164 -7 -164 14 0 17 10 18 63 2 51 31 176
59 250 8 18 -5 19 -98 10z"/>
<path d="M2165 3690 c-3 -5 -15 -60 -25 -122 -11 -62 -22 -128 -26 -145 -4
-21 -3 -33 4 -33 6 0 13 19 17 43 4 23 9 56 11 72 3 17 12 57 20 90 22 92 23
95 14 100 -5 3 -11 1 -15 -5z"/>
<path d="M2349 3618 c-8 -18 -14 -37 -15 -43 0 -5 -4 -19 -8 -30 -47 -123 -67
-195 -56 -195 11 0 29 31 33 57 2 10 11 34 22 53 15 30 19 32 25 16 3 -10 2
-47 -3 -83 -5 -35 -6 -67 -2 -71 9 -9 34 26 42 58 3 14 21 58 40 97 19 40 31
78 27 84 -4 8 -3 9 4 5 7 -4 12 -3 12 3 0 5 3 16 6 25 4 10 1 16 -9 16 -13 0
-31 -31 -29 -50 0 -3 -5 -14 -11 -25 -6 -11 -11 -22 -12 -25 0 -3 -7 -15 -16
-28 -13 -18 -18 -20 -22 -8 -3 8 -4 25 -1 38 11 44 9 131 -2 135 -6 2 -18 -11
-25 -29z"/>
<path d="M1385 3633 c6 -4 11 -15 11 -23 -1 -14 37 -115 85 -230 24 -60 24
-27 0 36 -11 27 -27 76 -36 109 -21 76 -36 107 -55 112 -9 3 -11 1 -5 -4z"/>
<path d="M1203 3562 c-9 -6 -4 -23 19 -67 17 -33 37 -67 44 -76 8 -8 14 -21
14 -27 0 -6 9 -26 20 -44 23 -39 25 -61 6 -77 -22 -18 -44 -2 -72 52 -14 29
-29 54 -32 57 -4 3 -16 23 -28 45 -11 22 -26 39 -33 37 -7 -1 -10 2 -6 8 9 15
-5 52 -17 48 -6 -2 -12 -12 -14 -21 -1 -9 2 -15 7 -11 5 3 9 -4 9 -15 0 -12 3
-21 8 -21 4 0 18 -20 32 -45 14 -25 28 -45 32 -45 5 0 8 -5 8 -11 0 -6 14 -30
30 -55 23 -32 38 -44 55 -44 14 0 25 5 25 11 0 5 4 8 9 4 6 -3 15 3 20 13 8
15 0 40 -38 118 -76 159 -85 174 -98 166z"/>
<path d="M2609 3504 c-6 -8 -8 -14 -3 -14 5 0 4 -4 -1 -8 -19 -13 -115 -189
-115 -210 0 -27 26 -52 54 -52 24 0 56 28 56 48 0 7 4 12 9 12 11 0 33 59 25
71 -9 15 -24 10 -24 -8 0 -10 -9 -31 -19 -47 -11 -17 -18 -33 -15 -38 6 -10
-42 -22 -55 -13 -16 9 -13 41 4 55 8 7 15 16 15 21 0 5 20 42 45 82 25 41 45
80 45 86 0 12 29 15 46 3 12 -8 26 -55 15 -47 -5 2 -13 -7 -19 -20 -11 -25 -4
-39 13 -27 14 10 35 49 35 65 0 39 -86 71 -111 41z"/>
<path d="M1688 3413 c-22 -5 -24 -23 -3 -23 8 0 15 5 15 10 0 6 5 10 11 10 5
0 7 -4 4 -10 -8 -12 5 -13 23 -1 11 7 10 10 -3 15 -18 6 -20 6 -47 -1z"/>
<path d="M941 3373 c8 -10 19 -24 24 -32 6 -7 24 -28 40 -45 42 -43 85 -102
85 -116 0 -13 22 -9 27 6 2 5 -9 23 -23 39 -14 17 -40 50 -57 75 -44 64 -64
83 -88 87 -19 3 -20 1 -8 -14z"/>
<path d="M905 3370 c-3 -5 1 -10 10 -10 9 0 13 5 10 10 -3 6 -8 10 -10 10 -2
0 -7 -4 -10 -10z"/>
<path d="M873 3337 c-6 -12 -7 -29 -4 -39 8 -21 172 -192 192 -200 9 -4 32 7
57 27 35 27 39 34 25 40 -21 7 -23 7 -24 -2 -1 -14 -30 -41 -50 -46 -10 -3
-17 -1 -13 4 3 5 -2 9 -11 9 -9 0 -14 4 -11 9 7 11 -104 132 -115 125 -5 -3
-6 2 -3 10 4 10 -1 18 -11 22 -11 5 -15 14 -11 30 8 30 -8 39 -21 11z m122
-155 c-3 -3 -11 0 -18 7 -9 10 -8 11 6 5 10 -3 15 -9 12 -12z"/>
<path d="M2850 3301 c-21 -22 -51 -46 -66 -54 -16 -8 -41 -26 -54 -40 -14 -13
-38 -32 -53 -42 -26 -16 -34 -41 -12 -33 6 2 9 7 7 11 -1 5 3 5 9 1 6 -3 14
-2 18 3 3 5 32 30 64 56 91 73 101 62 32 -37 -24 -35 -41 -66 -38 -70 4 -3 1
-6 -5 -6 -7 0 -12 -10 -12 -22 1 -22 2 -21 25 7 16 19 23 37 19 50 -4 16 -3
17 5 5 6 -8 11 -12 12 -7 1 4 2 10 3 15 1 4 14 20 29 36 14 16 24 32 21 37 -3
5 -1 9 4 9 16 0 62 87 56 104 -9 25 -24 19 -64 -23z"/>
<path d="M660 3085 c-1 -5 -1 -14 0 -20 1 -5 -2 -7 -6 -3 -10 11 -34 -11 -28
-26 3 -7 -2 -19 -11 -26 -16 -14 -22 -75 -5 -65 6 3 7 -1 4 -10 -5 -13 -1 -15
20 -11 15 3 24 1 21 -4 -8 -13 24 -60 40 -60 7 0 26 -7 41 -15 40 -21 57 -19
51 4 -3 13 -1 18 9 14 7 -2 11 -10 8 -17 -3 -7 2 -13 9 -13 15 0 17 14 4 34
-4 6 -3 14 3 18 5 3 10 5 11 3 0 -2 2 -11 4 -21 5 -26 15 -34 15 -13 0 11 4
15 13 10 8 -5 7 -2 -2 9 -12 15 -12 17 3 11 11 -4 16 -1 16 14 0 53 -119 71
-121 19 -1 -20 -2 -20 -8 3 -7 25 -8 24 -20 -10 -9 -23 -21 -36 -32 -37 -24
-2 -24 5 -1 30 9 11 11 17 4 13 -11 -7 -11 -4 0 13 7 12 15 21 19 21 3 0 6 16
7 36 2 38 -32 99 -48 89 -5 -3 -11 1 -13 7 -3 7 -6 9 -7 3z m27 -75 c-1 -11
-7 -20 -14 -20 -11 0 -11 5 -3 20 6 11 13 20 15 20 2 0 3 -9 2 -20z m-10 -105
c0 -8 -4 -12 -9 -9 -5 3 -6 10 -3 15 9 13 12 11 12 -6z"/>
<path d="M3076 3059 c-15 -18 -26 -43 -26 -60 0 -36 23 -84 45 -93 13 -4 13
-9 3 -25 -11 -18 -14 -17 -50 23 -33 38 -42 43 -76 41 -44 -2 -65 -12 -57 -26
3 -5 -1 -6 -9 -3 -27 10 -18 -25 13 -57 33 -33 64 -36 117 -14 19 8 38 14 42
14 20 -3 31 3 37 21 4 11 19 27 34 34 46 24 40 96 -12 154 -26 29 -30 28 -61
-9z"/>
<path d="M3190 2897 c-35 -32 -48 -74 -33 -107 3 -8 7 -19 9 -25 2 -5 6 -20
10 -32 5 -18 2 -23 -10 -23 -10 0 -14 5 -11 10 3 6 2 10 -3 10 -6 0 -13 11
-16 25 -8 32 -78 65 -92 44 -3 -5 -10 -7 -15 -4 -11 7 -45 -16 -43 -30 3 -28
26 -65 46 -76 29 -15 68 -20 68 -8 0 5 19 9 43 9 34 0 44 4 52 22 6 12 24 27
42 31 19 6 34 18 37 31 9 34 7 76 -4 76 -5 0 -9 3 -8 8 2 6 -30 72 -35 72 -1
0 -18 -15 -37 -33z m20 -33 c0 -19 -4 -33 -8 -30 -7 4 -9 49 -3 64 5 13 11 -5
11 -34z m35 -3 c-6 -5 -25 10 -25 20 0 5 6 4 14 -3 8 -7 12 -15 11 -17z m-5
-93 c11 -7 8 -8 -10 -4 -14 3 -31 6 -37 6 -7 0 -13 5 -13 11 0 11 33 4 60 -13z
m-200 -43 c0 -2 -6 -5 -13 -8 -8 -3 -14 1 -14 8 0 7 6 11 14 8 7 -3 13 -6 13
-8z"/>
<path d="M565 2886 c-11 -13 -25 -21 -31 -19 -20 7 -36 -24 -29 -59 3 -18 7
-38 7 -45 1 -7 5 -10 10 -7 4 3 8 0 8 -6 0 -6 5 -8 11 -4 8 5 8 8 0 13 -8 5
-7 12 2 25 12 16 13 16 15 -1 4 -37 8 -53 17 -60 4 -5 5 -2 0 6 -6 11 -4 13 7
8 16 -6 18 -2 37 56 11 33 4 60 -13 50 -8 -5 -8 -3 1 8 9 11 8 19 -5 36 l-17
23 -20 -24z m25 -36 c0 -5 -9 -14 -20 -20 -14 -7 -20 -7 -20 0 0 5 7 10 15 10
8 0 15 5 15 10 0 6 2 10 5 10 3 0 5 -4 5 -10z m10 -40 c0 -5 -5 -10 -11 -10
-5 0 -7 5 -4 10 3 6 8 10 11 10 2 0 4 -4 4 -10z m0 -32 c0 -4 -4 -8 -9 -8 -6
0 -12 4 -15 8 -3 5 1 9 9 9 8 0 15 -4 15 -9z"/>
<path d="M690 2795 c-24 -8 -35 -18 -35 -31 0 -10 -6 -24 -14 -30 -8 -6 -11
-16 -7 -22 7 -11 -12 -11 -31 1 -13 8 -27 -6 -16 -17 12 -12 63 -6 63 8 0 17
17 31 49 41 15 5 21 3 17 -3 -4 -6 3 -8 16 -5 20 4 21 3 8 -9 -27 -24 -22 -37
10 -25 16 6 27 14 24 18 -2 4 0 9 5 11 4 1 11 12 15 24 5 16 0 23 -18 32 -19
8 -27 8 -32 0 -5 -8 -9 -7 -13 4 -5 13 -11 13 -41 3z"/>
<path d="M3295 2732 c-3 -3 -5 -17 -6 -31 0 -21 -2 -23 -8 -8 -6 17 -8 17 -20
3 -7 -9 -10 -16 -5 -16 5 0 3 -4 -5 -9 -19 -12 -22 -49 -6 -88 7 -17 11 -34 8
-37 -11 -11 53 6 74 20 31 20 41 80 19 117 -9 16 -16 34 -16 41 0 12 -25 18
-35 8z m-5 -82 c0 -5 -2 -10 -4 -10 -3 0 -8 5 -11 10 -3 6 -1 10 4 10 6 0 11
-4 11 -10z"/>
<path d="M475 2721 c-3 -6 4 -15 15 -21 11 -6 20 -20 19 -33 0 -15 -2 -17 -6
-7 -9 21 -30 40 -37 33 -3 -4 -6 -1 -6 5 0 7 -5 12 -11 12 -5 0 -7 -4 -4 -10
3 -5 2 -10 -3 -10 -16 0 -25 -72 -11 -81 8 -4 10 -11 7 -15 -8 -8 10 -28 35
-37 13 -5 16 -3 11 6 -3 6 5 -1 20 -17 31 -35 45 -30 16 7 -22 28 -25 37 -10
37 6 0 9 -3 9 -7 -3 -20 2 -24 16 -13 12 10 13 16 3 28 -10 13 -10 14 0 8 7
-4 12 -1 12 8 0 19 -5 20 -31 6 -17 -10 -18 -9 -7 16 7 14 14 21 16 15 5 -16
22 -13 22 4 0 8 -7 15 -15 15 -8 0 -15 5 -15 11 0 5 5 7 10 4 23 -14 8 5 -19
25 -17 11 -32 16 -36 11z m20 -91 c-3 -5 -12 -10 -18 -10 -7 0 -6 4 3 10 19
12 23 12 15 0z"/>
<path d="M663 2704 c-7 -20 11 -38 31 -31 23 9 20 34 -5 40 -13 3 -22 0 -26
-9z"/>
<path d="M590 2612 c-28 -30 -31 -37 -17 -40 10 -2 15 -8 11 -13 -3 -5 -9 -7
-14 -4 -4 3 -10 -2 -14 -10 -6 -17 2 -19 24 -6 8 6 18 7 23 4 5 -3 4 -9 -3
-13 -8 -5 -2 -10 18 -15 24 -5 38 -1 61 16 34 25 41 49 14 48 -11 0 -13 -3 -5
-6 17 -7 15 -23 -3 -23 -8 0 -15 -5 -15 -10 0 -20 -26 13 -28 34 -1 16 1 18 8
6 5 -8 12 -12 15 -8 11 10 -19 49 -33 43 -8 -3 -12 0 -10 7 2 6 14 12 26 13
34 3 39 15 6 15 -20 -1 -39 -12 -64 -38z m38 -83 c-3 -8 -7 -3 -11 10 -4 17
-3 21 5 13 5 -5 8 -16 6 -23z"/>
<path d="M3103 2643 c-37 -7 -46 -27 -29 -61 8 -16 13 -32 11 -34 -3 -3 11
-13 30 -24 29 -16 40 -17 66 -7 21 8 38 9 50 3 12 -7 20 -6 25 2 4 7 3 10 -1
5 -10 -9 -47 22 -39 34 3 5 1 9 -5 9 -5 0 -8 9 -6 20 3 15 -5 26 -28 40 -18
11 -36 19 -42 19 -5 -1 -20 -4 -32 -6z"/>
<path d="M703 2615 c0 -8 4 -15 8 -15 4 0 9 7 13 15 3 9 0 15 -8 15 -7 0 -13
-7 -13 -15z"/>
<path d="M380 2529 c0 -5 6 -7 13 -3 6 4 3 -2 -7 -14 -11 -12 -16 -22 -11 -22
4 0 3 -6 -2 -12 -10 -14 -10 -23 1 -53 14 -38 23 -50 42 -54 10 -2 30 -11 44
-21 28 -19 62 -16 37 4 -17 13 -35 62 -19 52 5 -3 12 4 15 16 7 24 -9 61 -22
53 -5 -3 -12 2 -15 11 -3 8 -2 12 4 9 6 -3 10 1 10 9 0 14 -18 21 -42 17 -5 0
-8 4 -8 9 0 6 -9 10 -20 10 -11 0 -20 -5 -20 -11z m105 -78 c3 -5 1 -12 -5
-16 -5 -3 -10 1 -10 9 0 18 6 21 15 7z m-76 -22 c-15 -9 -32 -2 -24 11 3 5 13
6 21 3 12 -4 13 -8 3 -14z m35 2 c3 -5 -1 -11 -9 -14 -9 -4 -12 -1 -8 9 6 16
10 17 17 5z"/>
<path d="M3359 2538 c0 -2 -2 -11 -4 -21 -5 -26 -12 -30 -19 -12 -4 11 -2 14
6 9 7 -4 8 -3 4 4 -13 21 -24 13 -46 -34 -22 -45 -22 -46 -4 -79 18 -34 18
-35 -1 -49 -26 -20 -15 -20 21 -1 16 8 23 15 17 15 -7 0 -13 5 -13 10 0 6 7
10 15 10 8 0 15 -4 15 -10 0 -17 29 -11 39 9 8 15 7 20 -5 25 -9 3 -14 13 -11
20 3 8 1 17 -6 19 -7 2 -8 8 -4 13 7 8 19 -4 31 -31 3 -6 9 -4 15 5 7 10 6 19
-2 29 -10 12 -9 13 2 6 10 -6 12 -4 7 4 -5 7 -15 10 -25 7 -14 -5 -14 -5 -1 6
21 17 14 48 -11 48 -10 0 -19 -1 -20 -2z"/>
<path d="M570 2470 c0 -4 -11 -13 -25 -20 -21 -11 -23 -16 -12 -29 10 -12 9
-13 -2 -6 -11 6 -13 4 -8 -9 4 -10 7 -22 7 -27 0 -5 5 -9 11 -9 5 0 8 4 4 9
-3 5 -1 12 4 15 5 3 11 -3 14 -14 3 -11 1 -18 -4 -14 -5 3 -9 1 -9 -4 0 -20
45 -21 75 -2 16 11 26 20 22 20 -5 0 -1 7 7 16 28 28 15 87 -15 68 -8 -4 -7
-9 2 -16 11 -8 10 -9 -2 -5 -9 3 -22 0 -28 -6 -8 -8 -11 -8 -11 0 0 6 7 13 15
17 25 9 17 23 -15 23 -16 0 -30 -3 -30 -7z m9 -46 c-15 -18 -25 -18 -32 0 -4
10 -1 13 9 9 7 -3 14 0 14 7 0 6 5 8 10 5 8 -5 7 -11 -1 -21z m28 -39 c0 -8
-4 -12 -9 -9 -5 3 -6 10 -3 15 9 13 12 11 12 -6z"/>
<path d="M3126 2473 c-15 -4 -17 -11 -12 -46 7 -43 22 -60 43 -52 7 2 12 -1
10 -8 -1 -8 15 -12 50 -13 58 -1 56 -4 36 70 -12 44 -65 65 -127 49z"/>
<path d="M517 2359 c7 -7 15 -10 18 -7 3 3 -2 9 -12 12 -14 6 -15 5 -6 -5z"/>
<path d="M353 2329 c-1 -11 2 -17 8 -14 15 10 10 -2 -8 -20 -15 -16 -15 -17 8
-13 13 2 23 9 22 16 -3 13 43 17 50 5 10 -17 -10 -38 -35 -39 -69 -3 -73 -4
-59 -13 7 -5 11 -13 7 -19 -3 -5 3 -21 14 -33 16 -19 19 -20 13 -5 -4 13 -2
17 8 14 8 -3 14 -11 14 -19 0 -8 10 -14 26 -14 15 -1 33 -6 41 -13 8 -6 18 -8
22 -4 9 8 14 9 61 11 24 1 44 10 63 29 27 27 37 69 14 65 -6 -2 -9 4 -6 12 4
8 10 15 15 15 5 0 9 4 9 9 0 5 -21 8 -47 7 -34 -1 -47 -5 -45 -14 1 -8 -2 -11
-7 -7 -6 3 -20 -4 -32 -16 -20 -20 -21 -23 -6 -34 18 -13 24 -30 7 -20 -6 3
-13 -2 -16 -12 -3 -10 -8 -25 -10 -33 -4 -12 -6 -12 -14 -1 -4 8 -6 20 -3 28
3 7 0 13 -7 13 -6 0 -8 5 -4 11 3 6 0 15 -7 20 -11 7 -10 9 4 9 21 0 23 18 2
26 -8 4 -13 10 -10 14 6 10 -14 26 -56 44 -33 14 -35 13 -36 -5z m197 -71 c0
-4 -6 -8 -14 -8 -8 0 -17 4 -20 8 -2 4 4 8 15 8 10 0 19 -4 19 -8z m32 -10
c-4 -16 -2 -19 8 -13 9 5 11 4 6 -3 -4 -7 -1 -12 6 -13 7 0 4 -4 -7 -9 -26
-11 -44 -12 -26 -1 7 5 10 14 7 20 -4 6 -12 9 -17 5 -6 -3 -5 3 3 15 17 27 28
27 20 -1z m-151 -35 c13 -16 12 -17 -3 -4 -10 7 -18 15 -18 17 0 8 8 3 21 -13z"/>
<path d="M3390 2338 c-19 -5 -43 -19 -53 -31 -18 -21 -18 -21 0 -28 16 -7 17
-8 1 -8 -20 -1 -19 -1 -23 -51 -1 -19 -6 -44 -10 -55 -7 -16 -6 -18 6 -7 7 6
24 12 39 12 31 0 74 21 70 35 -1 6 -6 9 -11 8 -5 -2 -9 2 -9 8 0 6 9 8 20 4
18 -6 20 -2 20 47 0 69 -6 77 -50 66z m37 -80 c-3 -8 -6 -5 -6 6 -1 11 2 17 5
13 3 -3 4 -12 1 -19z m-77 -8 c0 -5 -4 -10 -10 -10 -5 0 -10 5 -10 10 0 6 5
10 10 10 6 0 10 -4 10 -10z m-3 -35 c0 -8 -4 -15 -9 -15 -4 0 -8 7 -8 15 0 8
4 15 8 15 5 0 9 -7 9 -15z"/>
<path d="M3149 2301 c10 -7 10 -10 1 -13 -18 -6 -3 -64 23 -92 14 -14 36 -23
61 -25 22 -1 42 -3 45 -5 3 -2 7 9 8 25 1 16 -2 27 -6 24 -5 -2 -12 2 -15 11
-9 24 -7 31 4 14 8 -13 10 -13 10 2 0 9 -11 29 -25 43 -21 20 -36 25 -73 25
-30 0 -42 -3 -33 -9z"/>
<path d="M339 2135 c-1 0 -2 -14 -4 -31 -2 -24 3 -34 24 -47 l26 -16 -25 -2
c-14 0 -19 -3 -12 -6 6 -2 10 -9 6 -14 -3 -5 0 -9 6 -9 6 0 8 -4 5 -10 -3 -5
0 -10 7 -11 7 0 34 -4 60 -8 43 -7 46 -6 37 10 -5 10 -9 32 -9 49 0 38 -16 70
-33 66 -6 -1 -9 -1 -4 1 13 8 7 25 -8 20 -8 -4 -17 -2 -20 3 -5 7 -39 10 -56
5z m61 -40 c0 -5 -5 -3 -10 5 -5 8 -10 20 -10 25 0 6 5 3 10 -5 5 -8 10 -19
10 -25z"/>
<path d="M560 2121 c0 -13 -2 -13 -9 -2 -10 16 -31 6 -31 -15 0 -8 -5 -14 -12
-14 -6 0 -8 -3 -5 -7 4 -3 1 -13 -6 -21 -9 -12 -9 -16 1 -19 6 -3 9 -10 5 -16
-4 -7 -8 -22 -9 -35 -1 -20 1 -21 20 -9 12 8 31 12 44 11 15 -3 21 0 17 7 -4
6 2 13 14 16 20 5 20 6 4 18 -16 12 -14 13 10 8 26 -5 27 -4 27 41 0 25 -3 47
-7 48 -38 7 -63 3 -63 -11z m15 -91 c3 -5 -1 -10 -10 -10 -9 0 -13 5 -10 10 3
6 8 10 10 10 2 0 7 -4 10 -10z"/>
<path d="M3169 2131 c-10 -4 -15 -19 -14 -48 1 -51 28 -84 72 -87 16 -2 35 -6
41 -10 8 -4 10 -2 6 7 -3 8 -1 18 5 21 17 11 3 67 -23 93 -25 25 -59 35 -87
24z m71 -25 c0 -3 -4 -8 -10 -11 -5 -3 -10 -1 -10 4 0 6 5 11 10 11 6 0 10 -2
10 -4z"/>
<path d="M3416 2133 c-4 -4 -18 -7 -33 -8 -38 0 -67 -44 -68 -104 -1 -30 3
-47 10 -45 5 2 26 6 45 8 19 2 39 4 44 5 5 0 6 4 3 7 -4 4 2 14 12 23 23 20
29 121 7 121 -7 0 -16 -3 -20 -7z m-66 -53 c-6 -11 -12 -20 -14 -20 -2 0 -2 9
1 20 3 11 9 20 15 20 5 0 4 -9 -2 -20z"/>
<path d="M577 1963 c-47 -7 -75 -90 -48 -141 11 -21 13 -21 49 -7 46 19 68 47
66 83 -1 15 -3 37 -3 50 -1 23 -6 24 -64 15z m13 -23 c0 -5 -5 -10 -11 -10 -5
0 -7 5 -4 10 3 6 8 10 11 10 2 0 4 -4 4 -10z m-30 -36 c0 -8 -19 -13 -24 -6
-3 5 1 9 9 9 8 0 15 -2 15 -3z m50 -22 c0 -12 -3 -12 -15 -2 -8 7 -15 13 -15
15 0 1 7 2 15 2 8 0 15 -7 15 -15z"/>
<path d="M3135 1933 c-6 -36 20 -107 40 -105 6 0 16 -4 23 -10 7 -6 15 -8 19
-4 3 3 14 0 22 -8 15 -13 17 -9 19 43 4 73 -22 110 -80 115 -34 3 -37 2 -43
-31z"/>
<path d="M375 1931 c-3 -6 -12 -8 -19 -5 -8 3 -12 -3 -10 -18 1 -13 3 -32 3
-44 1 -12 13 -34 27 -49 26 -28 31 -29 111 -23 13 1 7 48 -10 83 -23 47 -86
81 -102 56z m45 -21 c0 -5 -2 -10 -4 -10 -3 0 -8 5 -11 10 -3 6 -1 10 4 10 6
0 11 -4 11 -10z m-15 -39 c3 -5 1 -12 -5 -16 -5 -3 -10 1 -10 9 0 18 6 21 15
7z m17 -48 c-6 -2 -9 -10 -6 -15 4 -7 2 -8 -5 -4 -13 9 -5 26 12 25 9 0 8 -2
-1 -6z"/>
<path d="M3328 1911 c-20 -18 -29 -36 -30 -59 -1 -18 -5 -35 -10 -38 -21 -13
-3 -24 41 -24 38 0 53 5 64 20 8 11 17 17 20 13 4 -3 7 -2 8 3 0 5 2 18 4 29
2 11 5 34 7 50 3 29 1 30 -36 31 -29 1 -47 -6 -68 -25z"/>
<path d="M655 1800 c3 -5 0 -7 -8 -4 -8 3 -18 0 -22 -5 -3 -6 -10 -9 -15 -6
-5 3 -18 -7 -30 -22 -17 -22 -20 -36 -15 -63 3 -19 7 -47 8 -61 2 -25 3 -25
27 -10 66 41 92 71 86 102 -9 50 -19 79 -27 79 -6 0 -7 -4 -4 -10z"/>
<path d="M3102 1777 c-20 -56 8 -124 53 -131 8 -1 24 -11 37 -21 13 -11 18
-14 12 -6 -9 10 -8 19 2 39 8 15 14 38 14 50 0 34 -31 82 -53 82 -10 0 -26 4
-36 9 -14 8 -20 4 -29 -22z"/>
<path d="M408 1743 c-32 -5 -32 -4 -17 -58 20 -75 74 -108 128 -80 l30 15 -15
45 c-15 41 -64 88 -90 84 -5 -1 -21 -4 -36 -6z"/>
<path d="M3300 1732 c-26 -13 -38 -28 -52 -66 -10 -28 -16 -52 -13 -54 2 -2
24 -7 47 -9 37 -4 48 -1 68 20 13 13 29 43 36 65 11 41 11 41 -19 51 -16 6
-30 11 -31 11 -1 0 -17 -8 -36 -18z"/>
<path d="M685 1634 c-16 -8 -35 -21 -42 -27 -20 -21 -21 -70 -1 -109 l19 -37
35 21 c39 23 54 45 54 83 0 21 -25 85 -33 85 -1 0 -15 -7 -32 -16z"/>
<path d="M3044 1613 c-20 -47 -11 -98 21 -119 13 -9 30 -12 36 -8 8 5 9 3 5
-5 -9 -14 22 -53 35 -45 16 9 10 24 -7 17 -14 -5 -14 -2 1 28 35 68 20 124
-42 158 -31 16 -32 15 -49 -26z m71 -74 c2 -3 -8 -5 -25 -5 -16 0 -27 3 -25 6
5 8 42 6 50 -1z"/>
<path d="M478 1553 c-9 -2 -18 -10 -21 -16 -8 -22 18 -80 45 -100 28 -21 78
-31 78 -16 0 5 9 9 20 9 24 0 25 18 6 65 -21 49 -73 73 -128 58z"/>
<path d="M3218 1545 c-28 -16 -58 -62 -58 -88 0 -22 48 -50 75 -43 49 12 112
103 88 127 -17 16 -78 19 -105 4z m42 -99 c-14 -14 -24 0 -16 21 6 15 8 15 16
3 6 -9 5 -19 0 -24z"/>
<path d="M761 1483 c-6 -10 -11 -14 -11 -8 0 21 -28 -33 -34 -69 -6 -32 -4
-42 15 -62 27 -29 37 -29 70 -1 39 33 43 74 12 120 -29 42 -37 45 -52 20z"/>
<path d="M2960 1458 c-31 -50 -13 -105 44 -135 20 -11 46 4 46 26 0 6 5 11 10
11 13 0 13 66 0 91 -6 10 -17 19 -25 19 -8 0 -15 5 -15 10 0 24 -42 8 -60 -22z
m54 -84 c3 -8 2 -12 -4 -9 -6 3 -10 10 -10 16 0 14 7 11 14 -7z"/>
<path d="M583 1379 c-41 -12 -46 -21 -31 -56 30 -66 83 -92 137 -66 17 9 31
19 31 24 0 27 -37 79 -67 93 -18 9 -35 16 -36 15 -1 0 -16 -5 -34 -10z"/>
<path d="M3118 1371 c-27 -16 -52 -63 -40 -76 4 -3 -1 -3 -9 0 -10 4 -16 0
-16 -10 0 -8 3 -13 5 -10 3 3 13 -2 22 -10 25 -23 59 -26 91 -10 31 17 53 50
44 65 -3 6 -2 10 4 10 16 0 8 40 -9 45 -40 12 -67 11 -92 -4z m27 -32 c-4 -5
-13 -9 -21 -9 -8 0 -14 -5 -14 -12 0 -6 -2 -9 -5 -6 -11 10 6 34 25 35 11 1
18 -2 15 -8z m-5 -79 c0 -5 -2 -10 -4 -10 -3 0 -8 5 -11 10 -3 6 -1 10 4 10 6
0 11 -4 11 -10z"/>
<path d="M2875 1346 c-14 -14 -25 -31 -26 -38 0 -7 -2 -28 -3 -45 -3 -23 3
-40 20 -58 21 -23 25 -24 56 -11 27 12 33 20 35 46 1 17 4 34 6 37 10 10 -14
58 -38 76 -24 18 -26 17 -50 -7z m2 -31 c-15 -16 -19 -13 -11 9 3 9 10 13 15
10 5 -3 3 -11 -4 -19z"/>
<path d="M848 1341 c-43 -50 -43 -93 0 -149 17 -23 22 -36 15 -43 -7 -7 -19 0
-37 24 -15 20 -40 40 -55 45 -32 11 -81 5 -81 -11 0 -6 -3 -7 -7 -4 -10 11
-32 -13 -26 -29 3 -7 9 -11 14 -8 5 3 6 -1 3 -9 -8 -21 52 -67 86 -67 16 0 41
11 57 24 15 12 33 21 38 19 14 -5 48 54 39 69 -4 6 -3 8 2 5 18 -11 34 9 40
49 4 33 1 44 -24 72 -33 37 -42 39 -64 13z"/>
<path d="M962 1206 c-33 -48 -29 -98 8 -129 17 -14 30 -30 30 -36 0 -6 5 -11
11 -11 6 0 9 9 6 20 -3 13 -1 18 6 13 7 -4 8 0 4 11 -4 10 -3 15 3 11 13 -8
30 28 30 64 0 22 -9 37 -38 59 l-38 30 -22 -32z"/>
<path d="M2998 1213 c-9 -11 -8 -13 2 -11 7 2 15 -4 18 -12 4 -12 1 -11 -20 2
-23 15 -26 15 -38 -2 -7 -10 -12 -21 -11 -25 2 -4 -3 -11 -10 -16 -10 -6 -6
-14 16 -31 37 -29 93 -32 118 -7 18 19 24 44 7 34 -5 -3 -10 1 -10 9 0 20 5
20 24 1 13 -13 15 -13 21 5 3 11 11 20 17 20 6 0 -2 10 -16 21 -33 26 -101 33
-118 12z"/>
<path d="M2752 1203 c-7 -3 -17 -14 -23 -25 -7 -13 -7 -18 -1 -14 6 3 13 2 16
-3 3 -5 -1 -11 -9 -15 -21 -8 -19 -39 5 -69 11 -14 20 -33 20 -44 0 -20 37
-49 58 -45 7 2 12 -1 11 -5 -5 -31 2 -35 51 -31 48 5 95 32 85 48 -3 4 5 10
17 13 l22 6 -25 24 c-31 31 -58 40 -75 26 -10 -8 -14 -8 -14 0 0 6 -6 11 -14
11 -17 0 -68 -39 -62 -49 3 -4 -4 -7 -14 -8 -33 -3 -31 14 4 40 32 25 49 66
39 94 -4 10 -9 11 -18 3 -10 -8 -15 -6 -20 9 -7 24 -34 41 -53 34z m36 -35
c11 -14 11 -16 -3 -14 -8 1 -21 8 -28 16 -9 10 -9 11 1 6 7 -4 12 -2 12 5 0 7
1 10 3 8 1 -2 8 -12 15 -21z m9 -48 c-1 -21 -10 -18 -13 5 -1 8 2 15 6 15 5 0
8 -9 7 -20z m143 -109 c5 -11 7 -22 2 -25 -4 -2 -12 7 -19 20 -13 28 2 33 17
5z m-35 -21 c3 -5 1 -10 -4 -10 -6 0 -11 5 -11 10 0 6 2 10 4 10 3 0 8 -4 11
-10z"/>
<path d="M1102 1110 c-7 -12 -10 -25 -7 -31 4 -5 1 -8 -7 -7 -12 3 -16 -32 -9
-77 2 -14 81 -68 88 -61 4 3 3 6 -1 6 -3 0 1 15 10 32 9 18 17 46 16 61 -1 30
-36 77 -58 77 -7 0 -14 5 -16 10 -2 6 -9 1 -16 -10z"/>
<path d="M2661 1113 c-1 -7 -4 -12 -8 -11 -47 12 -86 -68 -60 -126 25 -56 38
-81 33 -64 -3 11 9 25 35 43 36 26 55 46 27 29 -8 -5 -8 -1 1 10 18 22 23 86
7 80 -7 -3 -17 8 -23 23 -6 15 -11 22 -12 16z m9 -68 c0 -12 -19 -12 -23 0 -4
9 -1 12 9 8 7 -3 14 -7 14 -8z"/>
<path d="M823 1070 c-13 -5 -23 -12 -23 -15 0 -4 4 -4 9 0 5 3 13 0 17 -6 4
-7 3 -10 -2 -7 -5 3 -17 2 -28 -1 -17 -7 -16 -10 13 -43 18 -20 45 -40 62 -43
31 -7 93 11 84 25 -4 7 22 23 55 33 9 3 6 6 -8 6 -13 1 -34 13 -47 27 -27 29
-93 41 -132 24z"/>
<path d="M1236 1001 c-9 -17 -16 -37 -16 -46 0 -31 30 -73 66 -94 28 -17 34
-25 25 -34 -8 -8 -19 -7 -41 7 -35 20 -73 23 -112 8 -28 -11 -52 -44 -41 -56
3 -3 0 -6 -8 -6 -8 0 1 -8 19 -16 17 -9 32 -20 32 -25 0 -5 22 -9 48 -9 48 0
82 20 82 48 0 6 10 19 23 29 12 10 21 26 19 36 -2 9 1 32 8 51 17 53 -14 113
-68 130 -17 6 -24 1 -36 -23z"/>
<path d="M2502 1013 c-5 -10 -7 -23 -5 -29 2 -6 -3 -14 -12 -18 -11 -4 -14 -2
-8 7 22 35 7 49 -21 18 -22 -25 -27 -69 -10 -102 7 -15 9 -31 4 -39 -10 -16
-1 -42 12 -34 5 3 12 -3 15 -15 3 -12 10 -21 16 -21 6 0 7 -3 4 -6 -3 -4 -2
-15 4 -25 8 -15 14 -17 29 -9 11 6 20 18 20 28 0 15 -2 15 -10 2 -5 -8 -10
-10 -10 -4 0 6 8 18 17 25 11 10 14 10 9 2 -5 -9 0 -13 14 -13 15 0 20 -5 18
-17 -2 -10 -8 -18 -15 -18 -6 0 -15 -3 -19 -7 -4 -5 -1 -8 7 -8 39 1 59 47 26
60 -19 7 -17 9 13 8 70 -1 72 0 47 25 -12 12 -26 23 -32 24 -5 1 -19 4 -30 6
-24 5 -77 -12 -70 -22 6 -10 -42 -8 -52 3 -7 6 20 29 37 31 3 0 15 6 27 13 24
13 41 85 25 105 -10 12 -12 18 -12 37 0 17 -29 11 -38 -7z m35 -65 c-3 -8 -6
-5 -6 6 -1 11 2 17 5 13 3 -3 4 -12 1 -19z"/>
<path d="M990 953 c-8 -2 -25 -18 -38 -34 l-23 -29 47 -30 c68 -43 95 -40 152
17 26 25 38 42 27 36 -16 -9 -25 -6 -49 13 -16 14 -35 23 -43 20 -8 -3 -11 -1
-8 4 6 10 -36 12 -65 3z"/>
<path d="M2339 941 c-19 -9 -43 -24 -52 -33 -16 -15 -16 -17 1 -21 13 -4 12
-5 -5 -6 -20 -1 -21 -4 -13 -27 6 -14 10 -36 10 -50 0 -13 5 -24 10 -24 6 0
10 4 10 10 0 5 7 7 15 4 8 -4 15 -1 15 5 0 6 6 8 14 5 12 -5 48 37 52 61 1 6
3 15 5 20 1 6 -4 24 -12 41 l-14 31 -36 -16z m16 -50 c-6 -5 -25 10 -25 20 0
5 6 4 14 -3 8 -7 12 -15 11 -17z"/>
<path d="M2681 936 c-20 -22 -21 -25 -6 -40 9 -9 21 -16 26 -16 5 0 9 -7 9
-15 0 -8 -8 -15 -17 -15 -15 0 -16 -2 -3 -10 24 -16 90 -12 96 5 4 8 11 12 17
8 5 -3 7 -1 4 5 -5 7 -16 7 -37 -1 -23 -9 -33 -8 -42 1 -11 11 -9 12 6 6 13
-5 17 -4 12 4 -9 16 4 63 18 61 18 -3 46 12 40 22 -3 5 -27 9 -53 9 -37 0 -52
-5 -70 -24z"/>
<path d="M1390 924 c-6 -14 -10 -36 -10 -49 0 -29 51 -85 78 -85 28 0 48 -26
26 -34 -9 -3 -21 -3 -27 1 -7 4 -16 8 -22 10 -5 1 -20 4 -33 7 -24 5 -86 -17
-98 -35 -5 -8 -3 -9 7 -4 8 5 7 0 -3 -12 -10 -11 -18 -24 -18 -29 0 -14 66
-44 96 -44 37 0 87 28 80 46 -3 8 -1 14 4 14 6 0 10 6 10 13 0 7 5 18 11 24 6
6 12 39 14 73 4 73 -10 103 -57 119 -43 15 -47 14 -58 -15z"/>
<path d="M2783 917 c-17 -9 -20 -16 -11 -30 8 -15 12 -16 26 -5 12 10 14 10 8
1 -5 -9 -1 -13 13 -13 28 0 33 13 15 38 -17 25 -21 26 -51 9z"/>
<path d="M1551 864 c-11 -41 5 -86 37 -103 31 -17 85 -17 89 -1 4 13 3 13 -6
0 -7 -9 -11 -10 -11 -3 0 6 5 15 10 18 29 18 -7 102 -48 111 -15 3 -35 8 -44
10 -12 4 -19 -5 -27 -32z"/>
<path d="M2132 866 c-27 -26 -32 -38 -32 -78 0 -35 4 -46 15 -44 8 1 17 5 21
8 3 4 12 4 19 2 39 -15 91 58 74 104 -5 13 -7 27 -5 31 3 4 -1 8 -9 8 -8 0
-15 -3 -15 -7 0 -3 -15 -14 -32 -24 -21 -11 -26 -12 -14 -2 10 8 16 19 15 24
-2 5 -19 -5 -37 -22z m57 -48 c1 6 6 12 13 12 6 0 3 -9 -8 -21 -10 -11 -20
-16 -22 -10 -2 6 -10 11 -18 11 -20 0 -18 17 4 29 13 8 18 5 24 -12 3 -12 6
-16 7 -9z"/>
<path d="M1719 853 c-5 -83 22 -120 90 -125 l44 -2 4 37 c3 33 -1 43 -31 73
-26 26 -42 34 -70 34 -27 0 -36 -4 -37 -17z"/>
<path d="M1971 851 c-7 -9 -9 -10 -6 -3 13 25 -4 11 -25 -22 -12 -21 -20 -48
-18 -68 2 -33 2 -33 47 -30 65 5 91 32 91 94 l0 49 -39 -2 c-21 -2 -44 -10
-50 -18z m66 3 c-3 -3 -12 -4 -19 -1 -8 3 -5 6 6 6 11 1 17 -2 13 -5z m-10
-40 c-3 -3 -12 -4 -19 -1 -8 3 -5 6 6 6 11 1 17 -2 13 -5z"/>
<path d="M2633 764 c-27 -31 -30 -43 -5 -22 9 8 25 18 35 21 9 4 17 11 17 17
0 18 -25 10 -47 -16z"/>
<path d="M2281 755 c9 -11 19 -31 22 -45 4 -14 19 -33 35 -42 33 -20 108 -20
105 -1 -2 7 4 10 12 7 8 -4 15 -1 15 5 0 6 7 8 16 4 14 -5 15 -3 6 14 -6 11
-8 24 -4 28 4 5 2 5 -4 2 -7 -4 -14 2 -17 14 -4 15 -11 20 -22 15 -9 -3 -13
-2 -10 4 8 12 7 12 -31 1 -17 -5 -37 -5 -44 -1 -7 5 -24 4 -38 -1 -17 -7 -29
-6 -41 3 -15 12 -15 11 0 -7z m165 -44 c-4 -5 0 -12 6 -14 8 -3 6 -6 -4 -6
-18 -1 -24 10 -11 22 9 10 15 8 9 -2z"/>
<path d="M1671 721 c-10 -17 -14 -18 -47 -6 -31 10 -43 10 -73 -2 -40 -17 -54
-27 -57 -45 -2 -7 -6 -22 -9 -34 -6 -18 0 -23 38 -34 40 -11 51 -10 87 6 35
16 42 24 52 61 6 24 14 43 18 43 3 0 7 7 7 15 0 20 -4 19 -16 -4z"/>
<path d="M2097 723 c-4 -3 0 -15 10 -25 9 -10 13 -18 9 -18 -4 0 0 -7 9 -16
12 -13 13 -19 4 -24 -8 -5 2 -15 29 -29 36 -19 47 -20 92 -10 51 11 51 11 44
42 -8 42 -29 64 -68 73 -44 11 -48 11 -80 1 -19 -7 -30 -6 -35 2 -4 6 -10 8
-14 4z"/>
<path d="M1856 701 c-3 -5 -33 -11 -66 -13 -68 -5 -97 -25 -106 -73 -3 -16 -7
-31 -9 -35 -2 -3 8 -7 23 -8 15 -1 38 -4 51 -7 34 -6 90 30 97 63 12 53 17 67
28 74 8 6 8 8 -1 8 -6 0 -14 -4 -17 -9z"/>
<path d="M1948 693 c-31 -5 -35 -21 -18 -69 16 -44 66 -68 121 -57 45 9 46 12
35 62 -6 28 -31 57 -49 58 -6 0 -23 3 -37 5 -14 3 -37 3 -52 1z"/>
<path d="M475 370 c-3 -5 -1 -10 4 -10 7 0 11 -42 11 -120 0 -73 4 -120 10
-120 6 0 10 44 10 113 0 114 4 130 30 140 8 3 -2 6 -22 6 -20 1 -40 -3 -43 -9z"/>
<path d="M594 364 c3 -9 6 -67 6 -130 0 -118 17 -161 22 -56 3 56 3 57 33 57
30 0 30 -1 33 -57 2 -32 7 -58 11 -58 12 0 13 232 1 250 -7 11 -10 -3 -10 -48
0 -49 -4 -64 -16 -69 -32 -12 -49 11 -52 71 -2 43 -7 56 -19 56 -10 0 -13 -6
-9 -16z"/>
<path d="M795 374 c-15 -6 -7 -254 8 -254 9 0 11 32 10 116 -2 109 -1 116 18
121 16 5 18 8 7 14 -14 9 -27 10 -43 3z"/>
<path d="M1040 252 c0 -99 3 -132 13 -132 9 0 11 29 7 124 -3 69 -8 128 -12
132 -5 4 -8 -52 -8 -124z"/>
<path d="M1158 250 c-2 -99 0 -130 10 -130 13 0 15 8 12 57 -1 18 2 43 6 55 6
21 8 20 24 -13 10 -19 21 -49 25 -67 3 -18 13 -32 21 -32 11 0 14 24 14 131 0
100 -3 130 -12 126 -9 -2 -12 -21 -10 -58 3 -65 -11 -96 -26 -58 -6 13 -16 45
-22 72 -7 26 -18 47 -26 47 -10 0 -14 -31 -16 -130z"/>
<path d="M1310 250 c0 -80 4 -130 10 -130 6 0 10 21 10 48 0 67 14 84 31 39
16 -45 37 -55 45 -22 3 13 12 29 20 36 15 12 15 11 16 -63 0 -26 5 -38 15 -38
11 0 13 23 11 125 -2 74 -7 125 -13 126 -5 0 -19 -30 -30 -68 -19 -66 -33 -90
-46 -75 -4 4 -14 37 -24 74 -10 37 -24 69 -31 72 -11 4 -14 -19 -14 -124z"/>
<path d="M1520 251 c0 -98 3 -131 13 -131 9 0 12 32 12 127 0 92 -3 127 -12
130 -10 4 -13 -26 -13 -126z"/>
<path d="M1636 368 c-3 -7 -3 -56 -2 -108 4 -136 5 -140 16 -140 13 0 13 247
0 255 -6 3 -12 0 -14 -7z"/>
<path d="M1730 371 c25 -7 25 -8 28 -129 3 -159 22 -162 22 -4 l0 118 28 10
c23 8 17 10 -38 11 -39 0 -55 -2 -40 -6z"/>
<path d="M2012 371 c-9 -6 -12 -39 -11 -125 1 -103 3 -118 20 -127 13 -6 19
-6 19 1 0 5 -4 10 -10 10 -6 0 -9 47 -7 125 1 69 2 125 2 125 0 0 -6 -4 -13
-9z"/>
<path d="M2070 370 c0 -5 5 -12 10 -15 12 -7 13 -132 1 -192 -5 -24 -4 -40 0
-37 5 3 9 0 9 -6 0 -6 4 -9 9 -6 5 3 10 62 10 130 2 116 1 124 -19 129 -11 3
-20 1 -20 -3z"/>
<path d="M2180 251 c0 -104 3 -130 15 -134 8 -4 17 -2 20 3 4 6 0 10 -7 10
-10 0 -12 27 -10 125 2 83 0 125 -7 125 -7 0 -11 -45 -11 -129z"/>
<path d="M2267 373 c-2 -5 -5 -64 -6 -132 -2 -97 1 -122 11 -119 16 6 25 258
9 258 -5 0 -12 -3 -14 -7z"/>
<path d="M2360 251 c0 -105 3 -131 14 -131 11 0 13 24 11 127 -2 80 -7 129
-14 131 -8 3 -11 -38 -11 -127z"/>
<path d="M2463 373 c4 -3 19 -8 33 -9 47 -5 48 -18 5 -99 -23 -43 -39 -80 -36
-83 2 -3 -1 -12 -7 -20 -22 -26 -19 -47 7 -47 20 0 23 4 19 21 -4 14 13 61 44
128 28 58 47 108 44 110 -12 6 -115 6 -109 -1z"/>
<path d="M2782 368 c-8 -8 -12 -48 -12 -114 0 -107 5 -134 24 -134 8 0 10 34
8 117 -3 103 -1 119 14 130 17 12 17 13 -2 13 -11 0 -25 -5 -32 -12z"/>
<path d="M2840 370 c0 -5 4 -10 9 -10 6 0 11 -15 13 -32 3 -26 6 -29 12 -15
11 24 -1 67 -19 67 -8 0 -15 -4 -15 -10z"/>
<path d="M2953 253 c2 -119 3 -128 22 -131 11 -2 16 0 10 5 -6 5 -10 60 -10
127 0 83 -4 121 -12 123 -9 3 -11 -29 -10 -124z"/>
<path d="M3080 260 c0 -66 0 -122 0 -125 0 -3 2 -4 3 -2 2 1 12 -5 22 -13 17
-14 18 -14 6 8 -7 14 -12 60 -11 120 2 130 1 132 -10 132 -6 0 -10 -47 -10
-120z"/>
<path d="M3161 258 c-1 -70 -6 -127 -13 -135 -14 -17 13 -18 30 -1 18 18 17
258 -2 258 -11 0 -14 -25 -15 -122z"/>
<path d="M3252 248 c3 -120 5 -133 21 -136 16 -3 17 -1 7 17 -6 12 -10 41 -8
64 3 37 6 42 28 42 23 0 25 -4 28 -48 2 -38 -1 -52 -15 -63 -21 -16 -10 -18
17 -4 17 9 19 22 19 122 0 65 -4 117 -11 125 -6 7 -28 13 -50 13 l-39 0 3
-132z m76 77 c6 -48 -6 -77 -31 -73 -17 2 -23 11 -25 37 -2 19 -1 44 2 57 5
19 10 22 29 15 14 -5 23 -18 25 -36z"/>
<path d="M838 253 c7 -3 16 -2 19 1 4 3 -2 6 -13 5 -11 0 -14 -3 -6 -6z"/>
<path d="M2860 155 c0 -19 5 -35 10 -35 6 0 10 16 10 35 0 19 -4 35 -10 35 -5
0 -10 -16 -10 -35z"/>
<path d="M2508 113 c6 -2 18 -2 25 0 6 3 1 5 -13 5 -14 0 -19 -2 -12 -5z"/>
</g>
</svg>
